<svg xmlns="http://www.w3.org/2000/svg"  viewBox="0 0 48 48" width="48px" height="48px"><path fill="#CFD8DC" d="M39.4 23L38.6 19 26 21.6 26 8 22 8 22 20.3 8.1 11.3 5.9 14.7 21.1 24.5 9.4 39.8 12.6 42.2 23.9 27.4 32.3 40.1 35.7 37.9 27.3 25.4z"/><path fill="#3F51B5" d="M24 17A7 7 0 1 0 24 31A7 7 0 1 0 24 17Z"/><path fill="#00BCD4" d="M24 3A5 5 0 1 0 24 13 5 5 0 1 0 24 3zM39 16A5 5 0 1 0 39 26 5 5 0 1 0 39 16zM7 8A5 5 0 1 0 7 18 5 5 0 1 0 7 8zM11 36A5 5 0 1 0 11 46 5 5 0 1 0 11 36zM34 34A5 5 0 1 0 34 44 5 5 0 1 0 34 34z"/></svg>