<svg xmlns="http://www.w3.org/2000/svg"  viewBox="0 0 39.157 42" width="48px" height="48px"><g data-name="Слой 2"><path fill="#33691e" d="M35.053,22.77c-.087-.174-2.106-4.3.031-7.5,2.994-4.491-1.04-9.639-1.08-9.688l.771-.635c.045.054,4.541,5.776,1.141,10.878-1.818,2.726.013,6.462.031,6.5Z"/><path fill="#1e88e5" d="M26.8,17.6c-.434-.324-.859-.656-1.3-.969C19.422,12.309,14.367,7.125,11.035.492c-.168-.339-.281-.5-.41-.492A3.363,3.363,0,0,0,9.047,2.4,3.75,3.75,0,0,0,9,3a5.1,5.1,0,0,0,2,4A6.151,6.151,0,0,0,8.5,6,1.5,1.5,0,0,0,7,7.5V8.875L9,11,28.5,25.75S26.512,18.344,26.8,17.6Z"/><path fill="#90caf9" d="M31,12c-4,0-6.625,6.75-6.875,7.375-1.453,3.633-2.871,9.391-3.531,10.446-.934.687-6.449,3.863-10.719,6.3A1.566,1.566,0,0,0,9,37.5,1.5,1.5,0,0,0,10.5,39a1.459,1.459,0,0,0,.656-.156A1.472,1.472,0,0,0,11,39.5,1.5,1.5,0,0,0,12.5,41a2.68,2.68,0,0,0,1.5-.5A1.5,1.5,0,0,0,15.5,42a1.82,1.82,0,0,0,1.578-1.3c.156.637.473,1.3,1.422,1.3A1.5,1.5,0,0,0,20,40.5c0-.051,0-.144,0-.258A1.948,1.948,0,0,0,21.5,41,1.5,1.5,0,0,0,23,39.5V34.625c0-1,.93-1.039,1.625-1.375a11.607,11.607,0,0,0,7.184-9.82c.25-1.984.328-3.949.421-5.43A.971.971,0,0,1,33,17l1-1V15A2.744,2.744,0,0,0,31,12Z"/><path fill="#90caf9" d="M23.875,19.75c-1.207-.6-6.133-3.863-8.125-5C6.75,9.625,2,3,1.5,3,.672,3,.008,4.746.008,6.024,0,9.012,3,10,3,10H1.5C.625,10,0,10.125,0,11c0,2.5,3,4,3,4H2.5c-.875,0-1.5.125-1.5,1.016C1,18.5,5,20,5,20s-2,.5-2,2c0,2,3.5,2,6,2,0,0-2,1-2,2.5,0,.828.875,1.5,2,1.5a7.694,7.694,0,0,0,4-1,3.825,3.825,0,0,0-1,2.5A1.326,1.326,0,0,0,13.5,31c2,0,4.5-2,4.5-2s-1,1-1,4c0,.625,4.5-1.125,4.875-1.125C24.875,31.875,27,26,27,23S24.625,20.125,23.875,19.75Z"/><path fill="#42a5f5" d="M23,26a4.9,4.9,0,0,0,1-1c.625-5.375-10.691-10.648-15.25-14H8.375A2.362,2.362,0,0,0,6,13.016C6,15.5,10,17,10,17s-2,.5-2,2c0,2,3.5,2,6,2,0,0-2,1-2,2.5,0,.828.875,1.5,2,1.5a7.694,7.694,0,0,0,4-1v1a1.831,1.831,0,0,0,2,2A4.38,4.38,0,0,0,23,26Z"/><path fill="#bbdefb" d="M21.254,17.41c-1.9-.863-4.262-1.953-5.5-2.66C11.984,12.606,3.836,5.371,3.406,4.9c0,0,2.813,8.285,17.078,15.457C24.25,22.25,24,25,24,25a5.137,5.137,0,0,0,1-3C25,19,22.4,17.934,21.254,17.41Z"/><path fill="#e65100" d="M34,15a3.813,3.813,0,0,1-1,2h3S35,15,34,15Z"/><path fill="#424242" d="M32,14.5a.5.5,0,1,1-.5-.5A.5.5,0,0,1,32,14.5Z"/><path fill="#42a5f5" d="M22.375,31c-1,.875-5.734,4.274-5.754,4.289A1.5,1.5,0,0,0,17.5,38a2.722,2.722,0,0,0,.559-.113,1.491,1.491,0,0,0,2.882.008,1.724,1.724,0,0,0,.559.1A1.5,1.5,0,0,0,23,36.5V34.625c0-1,.93-1.039,1.625-1.375a11.607,11.607,0,0,0,7.184-9.82c.25-1.984.328-3.949.421-5.43C32.23,18,31.293,30.043,22.375,31Z"/><path fill="#33691e" d="M32,1.046s-1,4,3,5C35,6.046,36,2.046,32,1.046Z"/><path fill="#33691e" d="M30.6,8.449s2.576,3.22,5.8.644C36.4,9.093,33.822,5.874,30.6,8.449Z"/><path fill="#33691e" d="M39.077,4.094s.875,4.03-3.154,4.9C35.923,9,35.048,4.969,39.077,4.094Z"/></g></svg>