<svg xmlns="http://www.w3.org/2000/svg"  viewBox="0 0 48 48" width="48px" height="48px"><path fill="#894415" d="M28,9h-8c-2.209,0-4,1.791-4,4v10h16V13C32,10.791,30.209,9,28,9z"/><path fill="#f57c00" d="M15,10L15,10c-2.209,0-4,1.791-4,4v9c0,0,8,2,8,0c0-1.93,0-6.655-1.798-11.477	C16.89,10.685,15.894,10,15,10z"/><path fill="#f57c00" d="M33,10L33,10c2.209,0,4,1.791,4,4v9c0,0-8,2-8,0c0-1.93,0-6.655,1.798-11.477	C31.11,10.685,32.106,10,33,10z"/><path fill="#894415" d="M14,29L3,22l0,0c0-3.866,4.134-9,8-9l0,0c0.552,0,0.753,0.506,1,1C15,20,14,29,14,29z"/><path fill="#894415" d="M34.16,29L45,22c0-3.866-3.974-9-7.84-9l0,0c-0.552,0-0.753,0.506-1,1C33.16,20,34.16,29,34.16,29z"/><rect width="3" height="4" x="7" y="35" fill="#6d350f"/><rect width="3" height="4" x="38" y="35" fill="#6d350f"/><path fill="#f57c00" d="M39,37H8c-1.105,0-2-0.895-2-2V25h35v10C41,36.105,40.105,37,39,37z"/><path fill="#f57c00" d="M7,19c0,0-0.87-0.011-1.335,0.097c-1.284,0.297-2.315,1.357-2.586,2.647	C2.642,23.834,4.069,25.671,6,25.95V35c0,1.104,0.895,2,2,2h1h1h2V24C12,19,7,19,7,19z"/><path fill="#f57c00" d="M41,19c0,0,0.87-0.011,1.335,0.097c1.284,0.297,2.315,1.357,2.586,2.647	c0.438,2.09-0.989,3.927-2.921,4.206V35c0,1.104-0.895,2-2,2h-1h-1h-2V24C36,19,41,19,41,19z"/><path fill="#ffab40" d="M8,22L8,22c-1.105,0-2,0.895-2,2v11c0,1.105,0.895,2,2,2h2V24C10,22.895,9.105,22,8,22z"/><path fill="#ffab40" d="M40,22L40,22c1.105,0,2,0.895,2,2v11c0,1.105-0.895,2-2,2h-2V24C38,22.895,38.895,22,40,22z"/><rect width="24" height="10" x="12" y="27" fill="#894415"/><path fill="#6d350f" d="M34,30H14c-1.105,0-2-0.895-2-2v-3c0-1.105,0.895-2,2-2h20c1.105,0,2,0.895,2,2v3	C36,29.105,35.105,30,34,30z"/></svg>