<?xml version="1.0" encoding="UTF-8" standalone="no"?>
<svg
   xmlns:dc="http://purl.org/dc/elements/1.1/"
   xmlns:cc="http://creativecommons.org/ns#"
   xmlns:rdf="http://www.w3.org/1999/02/22-rdf-syntax-ns#"
   xmlns:svg="http://www.w3.org/2000/svg"
   xmlns="http://www.w3.org/2000/svg"
   xmlns:sodipodi="http://sodipodi.sourceforge.net/DTD/sodipodi-0.dtd"
   xmlns:inkscape="http://www.inkscape.org/namespaces/inkscape"
   width="124.44039mm"
   height="128.94118mm"
   viewBox="0 0 124.44039 128.94118"
   version="1.1"
   id="svg8"
   sodipodi:docname="THIS_IS_AWSOME1.svg"
   inkscape:version="1.0.1 (3bc2e813f5, 2020-09-07)">
  <defs
     id="defs2">
    <inkscape:path-effect
       effect="bspline"
       id="path-effect131"
       is_visible="true"
       lpeversion="1"
       weight="33.333333"
       steps="2"
       helper_size="0"
       apply_no_weight="true"
       apply_with_weight="true"
       only_selected="false" />
    <inkscape:path-effect
       effect="bspline"
       id="path-effect127"
       is_visible="true"
       lpeversion="1"
       weight="33.333333"
       steps="2"
       helper_size="0"
       apply_no_weight="true"
       apply_with_weight="true"
       only_selected="false" />
    <inkscape:path-effect
       effect="bspline"
       id="path-effect913"
       is_visible="true"
       lpeversion="0"
       weight="33.333333"
       steps="2"
       helper_size="0"
       apply_no_weight="true"
       apply_with_weight="true"
       only_selected="false" />
    <inkscape:path-effect
       effect="bspline"
       id="path-effect899"
       is_visible="true"
       lpeversion="1"
       weight="33.333333"
       steps="2"
       helper_size="0"
       apply_no_weight="true"
       apply_with_weight="true"
       only_selected="false" />
    <inkscape:path-effect
       effect="bspline"
       id="path-effect895"
       is_visible="true"
       lpeversion="1"
       weight="33.333333"
       steps="2"
       helper_size="0"
       apply_no_weight="true"
       apply_with_weight="true"
       only_selected="false" />
    <inkscape:path-effect
       effect="bspline"
       id="path-effect891"
       is_visible="true"
       lpeversion="1"
       weight="33.333333"
       steps="2"
       helper_size="0"
       apply_no_weight="true"
       apply_with_weight="true"
       only_selected="false" />
    <inkscape:path-effect
       effect="bspline"
       id="path-effect887"
       is_visible="true"
       lpeversion="1"
       weight="33.333333"
       steps="2"
       helper_size="0"
       apply_no_weight="true"
       apply_with_weight="true"
       only_selected="false" />
    <inkscape:path-effect
       effect="bspline"
       id="path-effect883"
       is_visible="true"
       lpeversion="1"
       weight="33.333333"
       steps="2"
       helper_size="0"
       apply_no_weight="true"
       apply_with_weight="true"
       only_selected="false" />
    <inkscape:path-effect
       effect="bspline"
       id="path-effect879"
       is_visible="true"
       lpeversion="1"
       weight="33.333333"
       steps="2"
       helper_size="0"
       apply_no_weight="true"
       apply_with_weight="true"
       only_selected="false" />
    <inkscape:path-effect
       effect="bspline"
       id="path-effect875"
       is_visible="true"
       lpeversion="1"
       weight="33.333333"
       steps="2"
       helper_size="0"
       apply_no_weight="true"
       apply_with_weight="true"
       only_selected="false" />
    <inkscape:path-effect
       effect="bspline"
       id="path-effect871"
       is_visible="true"
       lpeversion="1"
       weight="33.333333"
       steps="2"
       helper_size="0"
       apply_no_weight="true"
       apply_with_weight="true"
       only_selected="false" />
    <inkscape:path-effect
       effect="bspline"
       id="path-effect861"
       is_visible="true"
       lpeversion="1"
       weight="33.333333"
       steps="2"
       helper_size="0"
       apply_no_weight="true"
       apply_with_weight="true"
       only_selected="false" />
    <inkscape:path-effect
       effect="bspline"
       id="path-effect1129"
       is_visible="true"
       lpeversion="1"
       weight="33.333333"
       steps="2"
       helper_size="0"
       apply_no_weight="true"
       apply_with_weight="true"
       only_selected="false" />
  </defs>
  <sodipodi:namedview
     id="base"
     pagecolor="#ffffff"
     bordercolor="#666666"
     borderopacity="1.0"
     inkscape:pageopacity="0.0"
     inkscape:pageshadow="2"
     inkscape:zoom="7.9195959"
     inkscape:cx="275.94055"
     inkscape:cy="285.15812"
     inkscape:document-units="mm"
     inkscape:current-layer="layer1"
     inkscape:document-rotation="0"
     showgrid="false"
     fit-margin-top="0"
     fit-margin-left="0"
     fit-margin-right="0"
     fit-margin-bottom="0"
     inkscape:window-width="1920"
     inkscape:window-height="1115"
     inkscape:window-x="0"
     inkscape:window-y="0"
     inkscape:window-maximized="1"
     inkscape:snap-global="true" />
  <metadata
     id="metadata5">
    <rdf:RDF>
      <cc:Work
         rdf:about="">
        <dc:format>image/svg+xml</dc:format>
        <dc:type
           rdf:resource="http://purl.org/dc/dcmitype/StillImage" />
        <dc:title />
      </cc:Work>
    </rdf:RDF>
  </metadata>
  <g
     inkscape:label="Layer 1"
     inkscape:groupmode="layer"
     id="layer1"
     transform="translate(-57.204387,-74.047551)">
    <path
       id="path1062"
       style="opacity:1;fill:#000000;fill-opacity:1;stroke:none;stroke-width:0.222675"
       transform="matrix(0.99999994,-3.5405748e-4,3.5002788e-4,0.99999994,0,0)"
       d="m 136.5407,201.88863 a 17.263618,1.1423362 0 0 1 -17.26362,1.14233 17.263618,1.1423362 0 0 1 -17.26362,-1.14233 17.263618,1.1423362 0 0 1 17.26362,-1.14234 17.263618,1.1423362 0 0 1 17.26362,1.14234 z" />
    <path
       style="fill:#000000;stroke:none;stroke-width:0.264583px;stroke-linecap:butt;stroke-linejoin:miter;stroke-opacity:1"
       d="m 105.74672,191.73947 c -0.12391,0.42303 -0.24809,0.84579 -0.37254,1.26829 -0.11707,0.47471 -0.23439,0.94914 -0.35199,1.42332 -0.066,0.43634 -0.13235,0.87241 -0.19892,1.30822 0.14694,0.44336 0.2936,0.88644 0.44,1.32926 0.28675,0.19685 0.57322,0.39343 0.85943,0.58974 0.3359,0.13252 0.67153,0.26477 1.00689,0.39675 0.19943,0.0225 0.39859,0.0447 0.59749,0.0666 1.16931,0.18191 2.33832,0.36355 3.50709,0.54493 1.47181,0.21296 2.94329,0.42564 4.41454,0.63806 0.0966,0.0179 0.19284,0.0355 0.28886,0.0529 0.65517,0.0513 1.31005,0.1023 1.96467,0.15305 0.64821,-0.0122 1.29614,-0.0246 1.94381,-0.0373 0.88889,-0.0722 1.77748,-0.14464 2.66582,-0.21736 0.39755,-0.0875 0.79482,-0.17521 1.19183,-0.26321 1.49198,-0.17701 2.98363,-0.35428 4.47505,-0.53182 0.85749,-0.0584 1.71468,-0.11701 2.57162,-0.17592 0.5048,-0.19343 1.00932,-0.38712 1.51357,-0.58107 0.3443,-0.21436 0.68832,-0.42898 1.03208,-0.64386 0.16346,-0.26294 0.32664,-0.52613 0.48956,-0.78959 0.04,-0.24761 0.0797,-0.49548 0.11919,-0.74362 -0.25674,-0.78588 -0.51373,-1.57199 -0.77099,-2.35838 -0.10167,-0.43409 -0.20359,-0.86842 -0.30578,-1.30303 -0.0402,-0.12603 -0.0807,-0.25231 -0.1215,-0.37887 -0.72567,-2.87935 -1.45159,-5.75886 -2.17778,-8.63869 -0.25092,-1.21094 -0.50209,-2.42209 -0.75354,-3.63353 -0.24894,0.0845 -0.49814,0.16864 -0.74761,0.25256 -6.64151,-0.0553 -13.28302,-0.11088 -19.92493,-0.16672 -0.11793,0.0261 -0.23613,0.052 -0.35459,0.0776 -0.0759,0.60369 -0.15208,1.20708 -0.22852,1.81022 -0.33853,1.20293 -0.67732,2.40555 -1.01638,3.60794 -0.58522,2.31484 -1.17069,4.62932 -1.75643,6.94358 z"
       id="path877" />
    <path
       style="fill:#ffffff;stroke:none;stroke-width:0.264583px;stroke-linecap:butt;stroke-linejoin:miter;stroke-opacity:1"
       d="m 109.50589,179.97009 c -0.0796,0.0951 -0.15956,0.18994 -0.23974,0.28451 -0.0962,0.15521 -0.19269,0.31016 -0.28944,0.46484 -0.064,0.11496 -0.12822,0.22964 -0.19273,0.34407 0.0646,0.0604 0.12901,0.12053 0.19311,0.18041 0.23343,0.0794 0.46658,0.15845 0.69948,0.23728 0.18048,0.0589 0.36068,0.11757 0.54063,0.17596 0.17033,0.0363 0.34039,0.0724 0.51019,0.10818 0.11051,0.043 0.22075,0.0858 0.33073,0.12825 0.40851,0.14444 0.81673,0.28862 1.2247,0.43253 0.59447,0.15077 1.18865,0.30127 1.78257,0.4515 0.60625,0.0903 1.21221,0.18039 1.81791,0.27019 0.63796,0.0593 1.27562,0.11843 1.91303,0.17725 0.74599,0.0281 1.49169,0.056 2.23714,0.0836 0.71315,-0.0497 1.42601,-0.0996 2.13862,-0.14986 0.55799,-0.0917 1.1157,-0.18368 1.67316,-0.27592 0.56738,-0.0966 1.13447,-0.19348 1.70132,-0.29062 0.55705,-0.16288 1.11383,-0.32602 1.67035,-0.48942 0.20066,-0.067 0.40105,-0.13433 0.60119,-0.20189 0.29818,-0.0878 0.59608,-0.17585 0.89373,-0.26417 0.39377,-0.12697 0.78727,-0.2542 1.18051,-0.3817 0.006,-0.0617 0.0126,-0.12373 0.0185,-0.186 -0.1137,-0.15201 -0.22766,-0.30428 -0.34188,-0.45682 -0.0927,-0.13998 -0.18572,-0.28021 -0.27898,-0.42071 -0.0974,-0.15473 -0.19505,-0.30971 -0.29298,-0.46496 -0.0529,-0.0155 -0.10601,-0.0313 -0.15942,-0.0473 -6.4103,-0.0378 -12.82062,-0.076 -19.23133,-0.11432 -0.0332,0.1353 -0.0666,0.27034 -0.10035,0.40511 z"
       id="path897" />
    <path
       style="fill:#000000;stroke:none;stroke-width:0.264583px;stroke-linecap:butt;stroke-linejoin:miter;stroke-opacity:1"
       d="m 149.67605,161.17005 c 0.52479,-0.44794 1.04933,-0.89616 1.5736,-1.34463 0.52007,-0.64244 1.03986,-1.28511 1.55939,-1.92806 0.35366,-0.61386 0.70705,-1.22795 1.06019,-1.84232 0.17913,-0.45628 0.358,-0.9128 0.5366,-1.3696 0.18921,-0.6688 0.37815,-1.33784 0.56683,-2.00715 0.13331,-0.66313 0.26635,-1.32651 0.39912,-1.99015 0.0505,-0.38127 0.1007,-0.7628 0.15066,-1.14459 0.009,-0.76181 0.0174,-1.52386 0.0257,-2.28619 -0.0735,-0.63786 -0.14716,-1.27596 -0.22114,-1.91433 -0.10918,-0.42806 -0.21861,-0.85636 -0.32831,-1.28493 -0.14844,-0.58274 -0.29714,-1.16572 -0.44611,-1.74897 -0.63031,-1.52379 -1.26086,-3.04777 -1.89168,-4.57206 -0.49357,-0.61521 -0.98738,-1.23066 -1.48147,-1.84639 -8.38169,0.99283 -16.76331,1.98537 -25.14536,2.97765 -4.45866,0.0183 -8.91741,0.0362 -13.37651,0.054 -5.62902,-1.11761 -11.25807,-2.23543 -16.887504,-3.35355 -4.184714,0.48188 -8.369525,0.96348 -12.554686,1.44482 0.140791,1.80954 0.281311,3.61875 0.421569,5.42774 -0.05546,0.54208 -0.111191,1.08387 -0.167182,1.62542 -0.06093,0.52811 -0.122113,1.05594 -0.183568,1.58351 -0.05234,0.44053 -0.104937,0.88078 -0.157803,1.32077 -0.05316,0.37963 -0.106577,0.75898 -0.160263,1.13806 -0.01839,0.57094 -0.03702,1.14159 -0.05592,1.71198 0.147936,0.83704 0.295603,1.67379 0.443008,2.51029 0.243842,0.82081 0.48741,1.64133 0.730721,2.4616 0.351213,0.73847 0.702146,1.47665 1.052822,2.21458 0.309478,0.48659 0.618678,0.97289 0.927618,1.45894 0.355452,0.41703 0.710623,0.83378 1.065536,1.25028 0.401955,0.38737 0.803626,0.77446 1.205042,1.16129 0.278799,0.1526 0.802849,0.53295 0.802849,0.53295 0,0 -0.03256,0.66069 -0.04924,0.99064 0.165103,0.60666 0.329933,1.21302 0.494504,1.81914 0.158591,0.50012 0.31691,0.99995 0.474969,1.49952 0.200719,0.57301 0.401164,1.14573 0.601351,1.71819 0.27905,0.49933 0.557826,0.99837 0.836342,1.49715 0.314466,0.50729 0.628653,1.01429 0.942581,1.52104 0.674418,0.75451 1.348542,1.50871 2.022417,2.26267 0.905997,0.74933 1.811692,1.49836 2.717141,2.24714 0.702191,0.43329 1.404088,0.86629 2.105737,1.29903 0.5046,0.24521 1.008919,0.49014 1.512979,0.73481 0.80461,0.32493 1.60893,0.64959 2.413,0.97399 0.58167,0.21041 1.16305,0.42055 1.74417,0.63042 0.0791,0.0254 0.15782,0.0506 0.23634,0.0755 0.0655,0.0311 0.13073,0.062 0.19569,0.0926 0.7366,0.17385 1.47291,0.34742 2.20897,0.52074 0.99417,0.24889 1.98803,0.4975 2.98166,0.74586 0.7118,0.18009 1.42331,0.35991 2.13458,0.53947 0.7515,0.15681 1.50272,0.31335 2.25368,0.46963 0.95,0.13859 1.8997,0.27692 2.84915,0.41498 0.61396,0.0553 1.22764,0.11033 1.84106,0.1651 0.54818,-0.0449 1.09607,-0.0901 1.6437,-0.13561 0.90011,-0.11045 1.79992,-0.22117 2.69947,-0.33216 0.78432,-0.1796 1.56835,-0.35946 2.35213,-0.53958 0.82291,-0.20859 1.64553,-0.41743 2.4679,-0.62654 0.20284,-0.0436 0.40541,-0.0874 0.60773,-0.13153 0.76635,-0.19156 1.53242,-0.38338 2.29823,-0.57546 0.71987,-0.18051 1.43944,-0.36128 2.15877,-0.54232 0.53362,-0.17114 1.06695,-0.34254 1.60003,-0.5142 0.47057,-0.16595 0.94085,-0.33216 1.41088,-0.49864 0.47432,-0.20495 0.94835,-0.41016 1.42212,-0.61563 0.6106,-0.31442 1.22091,-0.6291 1.83097,-0.94405 0.76796,-0.53887 1.53562,-1.07798 2.30304,-1.61737 0.39833,-0.33829 0.79638,-0.67683 1.19417,-1.01564 0.65222,-0.70686 1.30414,-1.41395 1.95582,-2.12132 0.39004,-0.55284 0.7798,-1.10591 1.16931,-1.65927 0.46258,-0.91639 0.92487,-1.83302 1.38691,-2.74993 0.28989,-0.8348 0.5795,-1.66984 0.86886,-2.50516 0.147,-0.58517 0.29373,-1.17057 0.44019,-1.75626 0.0699,-0.52567 0.13958,-1.0516 0.20897,-1.5778 z"
       id="path859" />
    <path
       style="fill:#ffffff;stroke:none;stroke-width:0.264583px;stroke-linecap:butt;stroke-linejoin:miter;stroke-opacity:1"
       d="m 152.86626,144.21669 c 0.0108,0.48346 0.0213,0.96666 0.0316,1.44959 -0.007,0.45101 -0.0137,0.90173 -0.021,1.3522 -0.0168,0.49284 -0.0338,0.98539 -0.0511,1.47769 0.006,0.32216 0.011,0.64404 0.0161,0.96566 -0.0122,0.24476 -0.0247,0.48925 -0.0374,0.73347 -0.0183,0.2635 -0.0368,0.52673 -0.0556,0.78969 -0.073,0.40339 -0.14624,0.80649 -0.21976,1.20934 -0.17197,0.45429 -0.34419,0.90831 -0.51668,1.36207 -0.18383,0.44657 -0.36791,0.89286 -0.55227,1.3389 -0.31875,0.4638 -0.63776,0.92731 -0.95704,1.39056 -0.15099,0.24139 -0.64779,0.98573 -0.64779,0.98573 l 0.0714,-13.55539 2.88978,-0.12693 0.12574,0.91261 z"
       id="path863" />
    <path
       style="fill:#f3d7c2;fill-opacity:1;stroke:none;stroke-width:0.264583px;stroke-linecap:butt;stroke-linejoin:miter;stroke-opacity:1"
       d="m 91.409833,145.23006 c -0.01302,0.51693 -0.0263,1.03359 -0.03984,1.54998 0.01098,0.24852 0.02172,0.49675 0.03218,0.74473 -0.01741,0.77114 -0.03506,1.54198 -0.05299,2.31257 0.01344,0.63647 0.02662,1.27264 0.03954,1.90857 -0.01066,0.6138 -0.02159,1.22731 -0.0328,1.84057 0.01781,0.6765 0.03533,1.35272 0.0526,2.02869 -0.01206,0.64032 -0.02439,1.28036 -0.037,1.92014 -0.004,0.52897 -0.0082,1.05767 -0.01273,1.5861 0.06844,0.54665 0.136618,1.09302 0.204531,1.63914 0.199766,0.80344 0.399259,1.6066 0.598493,2.4095 0.196704,0.67633 0.393139,1.35238 0.589312,2.02817 0.281143,0.59414 0.562014,1.188 0.842623,1.7816 0.356376,0.55233 0.712473,1.10437 1.068311,1.65615 0.69455,0.79899 1.388809,1.59768 2.082816,2.39612 0.480941,0.41567 0.961602,0.83107 1.442003,1.2462 0.823899,0.51102 1.647502,1.02175 2.470858,1.53222 0.58444,0.30988 1.1686,0.61948 1.7525,0.92882 0.56789,0.25759 1.1355,0.5149 1.70285,0.77196 0.92401,0.26575 1.84771,0.53123 2.77116,0.79645 0.9428,0.24152 1.8853,0.48278 2.82755,0.72377 1.07438,0.12796 2.14845,0.25565 3.22227,0.38307 1.14606,0.10508 2.2918,0.20989 3.4373,0.31444 1.02064,-0.0173 2.04098,-0.0349 3.06107,-0.0527 1.31851,-0.01 2.63671,-0.0195 3.95466,-0.0297 0.67327,-0.0549 1.34625,-0.11014 2.01898,-0.16561 0.84631,-0.0719 1.69231,-0.14412 2.53807,-0.21658 0.5658,-0.11866 1.13132,-0.23758 1.69659,-0.35677 0.47197,-0.11588 0.94366,-0.23203 1.4151,-0.34845 0.93142,-0.25004 1.86255,-0.50033 2.79342,-0.75089 0.70392,-0.24583 1.40754,-0.4919 2.11091,-0.73825 0.5866,-0.27305 1.17291,-0.54635 1.75897,-0.81993 0.59558,-0.34245 1.19087,-0.68516 1.78591,-1.02813 0.68099,-0.51889 1.36169,-1.03803 2.04215,-1.55744 0.42098,-0.43348 0.84168,-0.8672 1.26212,-1.3012 0.40965,-0.4912 0.81902,-0.98265 1.22813,-1.47437 0.30297,-0.49658 0.60567,-0.99341 0.9081,-1.49051 0.28265,-0.55925 0.56503,-1.11874 0.84715,-1.6785 0.13802,-0.44325 0.27578,-0.88675 0.41328,-1.33052 0.19693,-0.58491 0.39358,-1.17006 0.58998,-1.75548 0.1263,-0.60097 0.25233,-1.20218 0.3781,-1.80366 0.0427,-0.95048 0.0851,-1.90118 0.12725,-2.85217 0.0175,-0.57442 0.0347,-1.14909 0.0516,-1.72403 0.002,-1.28426 0.004,-2.56874 0.006,-3.85351 0.0203,-0.72786 0.0403,-1.45596 0.0601,-2.18434 -0.005,-0.63453 -0.011,-1.2693 -0.0169,-1.90434 -0.0104,-0.84223 -0.021,-1.68469 -0.0319,-2.52743 0.0144,-0.54038 0.0285,-1.08101 0.0424,-1.62191 -0.2602,-1.52173 -0.52064,-3.04366 -0.78136,-4.56588 -0.20664,-0.72671 -0.41353,-1.45365 -0.6207,-2.18088 -0.88491,0.0909 -1.77005,0.18159 -2.65548,0.27198 -7.31826,0.81946 -14.6365,1.63861 -21.95515,2.45752 -5.45428,-0.34738 -10.90862,-0.69501 -16.36332,-1.04291 -2.62087,-0.54266 -5.24191,-1.08556 -7.863259,-1.62874 -2.081387,0.36635 -4.162952,0.73241 -6.244826,1.09822 -0.05002,1.011 -0.1003,2.02169 -0.150849,3.03214 0.211135,1.20896 0.422,2.4176 0.6326,3.626 z"
       id="path125" />
    <path
       style="fill:#000000;stroke:none;stroke-width:0.264583px;stroke-linecap:butt;stroke-linejoin:miter;stroke-opacity:1"
       d="m 57.204387,134.52119 2.541071,2.25803 2.128261,1.57123 2.869366,1.98124 2.225215,1.45007 1.785046,1.09372 2.15764,-1.17661 0.98933,-0.49725 0.210407,-0.0764 -2.120244,2.35977 2.748984,1.47973 3.214333,-3.18016 0.219009,-0.10395 -1.705854,3.98212 3.160869,1.29889 1.846601,0.72188 2.637785,0.96064 0.911138,0.3073 1.245552,-5.58277 z"
       id="path853" />
    <path
       style="fill:#000000;stroke:none;stroke-width:0.264583px;stroke-linecap:butt;stroke-linejoin:miter;stroke-opacity:1"
       d="m 181.64478,134.41542 c -0.48671,0.40811 -0.97368,0.81595 -1.46092,1.22353 -0.43946,0.33954 -0.87917,0.67879 -1.31915,1.0178 -0.49758,0.41772 -0.99539,0.83515 -1.49349,1.25233 -0.21249,0.15009 -0.42524,0.2999 -0.63827,0.44946 -0.69557,0.51473 -1.39139,1.02918 -2.08749,1.54337 -0.31343,0.21514 -0.62712,0.43 -0.94108,0.6446 -0.36974,0.23338 -0.73973,0.46648 -1.10999,0.69933 -0.30278,0.20683 -0.60581,0.41338 -0.9091,0.61968 -0.13825,0.0711 -0.27675,0.14198 -0.41552,0.21257 -0.1489,0.082 -0.29805,0.16366 -0.44748,0.24509 -0.15504,0.0958 -0.31035,0.19127 -0.46592,0.2865 -0.30654,0.15486 -0.61333,0.30945 -0.92039,0.46377 -0.21764,0.11352 -0.43554,0.22677 -0.65371,0.33976 -0.24822,0.15804 -0.4967,0.31581 -0.74544,0.47332 -0.20477,0.0897 -0.40979,0.1791 -0.61508,0.26825 -0.14395,0.0989 -0.28816,0.19751 -0.43264,0.29587 -0.22383,0.11558 -0.69607,0.42812 -0.69607,0.42812 l -1.35118,-0.99837 -0.66846,-0.41756 -0.7366,-0.58391 -0.82983,-0.53439 0.8974,1.30309 1.36447,1.78344 -2.89685,1.21009 -2.05862,0.75892 -1.65288,0.66603 -1.66359,0.655 -1.29344,0.3881 -1.4458,-5.96044 z"
       id="path855" />
    <path
       style="fill:#eebfa3;fill-opacity:1;stroke:none;stroke-width:0.264583px;stroke-linecap:butt;stroke-linejoin:miter;stroke-opacity:1"
       d="m 147.43715,145.10951 c -1.7e-4,0.006 -5e-4,0.0173 -0.001,0.0392 -6.7e-4,0.0219 -0.002,0.0541 -0.003,0.0873 -0.001,0.0333 -0.003,0.10152 -0.003,0.11422 -1.4e-4,0.0127 -4e-4,0.0378 -0.001,0.0828 -9.6e-4,0.045 -0.003,0.11002 -0.004,0.15749 -0.001,0.0475 -0.002,0.0775 -0.003,0.10943 -8.3e-4,0.0319 -0.002,0.0659 -0.002,0.0901 -6.7e-4,0.0242 -0.001,0.0386 -0.002,0.0477 -3.7e-4,0.009 -4.7e-4,0.0131 -3.7e-4,0.0286 1e-4,0.0155 3.6e-4,0.0431 8.3e-4,0.0701 4.6e-4,0.0271 0.001,0.0535 0.002,0.0831 6.6e-4,0.0296 0.001,0.0621 0.002,0.11815 8.3e-4,0.056 0.002,0.13536 0.003,0.23914 0.001,0.10378 0.005,0.33779 0.005,0.40793 8.4e-4,0.0701 0.003,0.21013 0.004,0.32944 0.001,0.11932 0.002,0.21797 0.003,0.30275 0.001,0.0848 0.002,0.15561 0.002,0.2353 -2e-5,0.0797 -0.002,0.24967 0.002,0.42879 0.004,0.17912 0.0117,0.53709 -0.0539,0.72474 -0.0655,0.18765 -0.20454,0.20528 -1.35288,0.30851 -1.14834,0.10324 -3.30594,0.29206 -5.80412,0.48876 -2.49819,0.1967 -5.33679,0.40125 -9.25582,0.53179 -3.91903,0.13054 -8.91825,0.18704 -13.82701,0.17168 -4.90876,-0.0154 -9.7267,-0.10258 -14.00234,-0.27709 -4.27564,-0.1745 -8.00753,-0.43622 -9.877021,-0.54818 -1.869491,-0.11196 -1.874111,-0.0743 -1.874111,-0.0743 10e-7,-1e-5 0.0046,-0.0377 0.0098,-0.14992 0.0052,-0.11222 0.01086,-0.29895 0.0145,-0.47815 0.0036,-0.17919 0.0052,-0.35085 0.01006,-0.54638 0.0048,-0.19552 0.01284,-0.41489 0.01468,-0.57499 0.0018,-0.1601 -0.0025,-0.26094 -0.0079,-0.38506 -0.0054,-0.12413 -0.01172,-0.27153 -0.01374,-0.43485 -0.002,-0.16331 3.12e-4,-0.34252 0.0057,-0.52795 0.0054,-0.18543 0.01377,-0.37705 0.01924,-0.54577 0.0055,-0.16872 0.008,-0.31453 0.01,-0.41857 0.0019,-0.10405 0.0033,-0.16632 0.0045,-0.23943 0.0011,-0.0731 0.002,-0.157 0.03512,-0.22124 0.03309,-0.0642 0.09828,-0.10847 0.290796,-0.14383 0.192518,-0.0354 0.512141,-0.0619 5.201703,0.0777 4.689564,0.13955 13.748664,0.44512 19.553304,0.54251 5.80465,0.0974 8.35458,-0.0134 10.97449,-0.13542 2.61991,-0.12203 5.30965,-0.25532 6.76428,-1.02288 1.45463,-0.76757 1.67439,-2.1696 2.05694,-3.14279 0.38255,-0.97319 0.92783,-1.51729 1.54333,-2.02347 0.61549,-0.50617 1.30111,-0.97437 2.04288,-1.10721 0.74178,-0.13284 1.53942,0.0696 2.33914,0.47073 0.79973,0.40118 1.6015,1.00096 2.18816,1.6448 0.58666,0.64384 0.9583,1.33161 1.42399,2.03749 0.4657,0.70587 1.02535,1.42982 1.30147,1.93641 0.27611,0.50659 0.26891,0.79583 0.26532,0.94033 -0.004,0.14449 -0.005,0.14449 -0.005,0.15034 z"
       id="path1127"
       inkscape:path-effect="#path-effect1129"
       inkscape:original-d="m 147.43732,145.10366 c -1.9e-4,0.0117 -5.3e-4,0.0232 -0.001,0.0344 -7.9e-4,0.0325 -0.002,0.0647 -0.003,0.0967 -5.2e-4,0.0345 -0.005,0.13674 -0.003,0.10276 0,0.0254 -2.6e-4,0.0505 -7.9e-4,0.0753 -0.001,0.0653 -0.003,0.13027 -0.005,0.19501 -7.9e-4,0.0302 -0.002,0.0602 -0.003,0.0898 -2.6e-4,0.0343 -7.9e-4,0.0683 -0.002,0.102 -5.3e-4,0.0147 -0.001,0.0291 -0.002,0.0433 1.7e-4,0.004 9e-5,0.008 -2.6e-4,0.0111 5.3e-4,0.0279 7.9e-4,0.0555 7.9e-4,0.0829 8e-4,0.0267 0.001,0.0532 0.002,0.0794 7.9e-4,0.0329 0.001,0.0655 0.002,0.0978 0.001,0.0797 0.002,0.15906 0.003,0.2382 0.002,0.12842 0.007,0.49031 0.005,0.36243 0.002,0.14027 0.003,0.28027 0.005,0.42 0.001,0.0989 0.002,0.19755 0.003,0.29592 0.001,0.0712 0.002,0.14202 0.003,0.21263 0.001,0.0888 -0.002,0.34705 -0.003,0.25875 0.008,0.35824 0.0158,0.7162 0.0233,1.0739 -0.13877,0.0179 -0.27779,0.0355 -0.41706,0.0529 -2.15742,0.18909 -4.31501,0.37792 -6.47292,0.56648 -2.83847,0.20483 -5.67707,0.40939 -8.516,0.61368 -4.99915,0.0568 -9.99837,0.11326 -14.99796,0.1695 -4.81793,-0.087 -9.63587,-0.17418 -14.45435,-0.26167 -3.732817,-0.26154 -7.464707,-0.52326 -11.199019,-0.78539 -0.0044,0.038 -0.009,0.0757 -0.01386,0.11309 0.0049,-0.0374 0.0095,-0.0751 0.01386,-0.11309 0.006,-0.18647 0.01164,-0.3732 0.01707,-0.56019 0.0019,-0.17141 0.0035,-0.34307 0.0048,-0.515 0.0083,-0.21911 0.01632,-0.43848 0.02408,-0.65812 -0.0041,-0.10058 -0.0085,-0.20142 -0.0131,-0.30253 -0.0061,-0.14714 -0.01246,-0.29454 -0.01908,-0.4422 0.0026,-0.17896 0.0049,-0.35817 0.007,-0.53765 0.0087,-0.19137 0.01707,-0.38299 0.02522,-0.57489 0.0028,-0.14555 0.0053,-0.29136 0.0076,-0.43744 0.0016,-0.062 0.003,-0.12427 0.0041,-0.18681 0.0011,-0.0837 0.0021,-0.16758 0.0027,-0.25177 0.06547,-0.044 0.13068,-0.0882 0.195625,-0.13273 0.319902,-0.0262 0.639524,-0.0527 0.958892,-0.0795 9.059722,0.30585 18.118822,0.61142 27.177832,0.91673 2.5503,-0.11051 5.10023,-0.22129 7.64995,-0.33233 2.6901,-0.13302 5.37984,-0.26631 8.06936,-0.39986 0.22003,-1.40181 0.43979,-2.80384 0.65928,-4.20615 0.54557,-0.54386 1.09086,-1.08795 1.63588,-1.63232 0.68591,-0.46795 1.37152,-0.93615 2.05688,-1.40461 0.79794,0.20266 1.59558,0.40506 2.39297,0.60719 0.80208,0.60008 1.60385,1.19986 2.40537,1.79939 0.37193,0.68806 0.74357,1.37583 1.11495,2.06335 0.55995,0.72425 1.1196,1.4482 1.679,2.17191 -0.007,0.28951 -0.0141,0.57875 -0.0216,0.86773 z"
       sodipodi:nodetypes="cccccccscccccccccccccccccccccccccccccccccccccccccccc" />
    <path
       style="fill:#000000;stroke:none;stroke-width:0.264583px;stroke-linecap:butt;stroke-linejoin:miter;stroke-opacity:1"
       d="m 89.020799,130.42469 2.766277,-6.64387 4.019365,-9.50971 2.906339,-7.07661 3.39392,-8.21239 2.48698,-5.848045 3.21455,-7.954531 21.14408,-11.131983 14.91132,15.725448 14.72387,-9.13862 10.93847,39.953361 -11.33313,-16.28652 -12.3734,12.4519 -5.90567,-10.91705 3.76845,13.65115 3.78412,4.96946 1.22961,1.82714 1.92545,3.48335 8.00726,2.48638 -3.68928,1.71615 1.63877,1.02324 2.85255,1.10254 2.35252,0.39323 3.19684,0.0743 6.77069,-0.25315 4.95931,-0.88846 4.36635,-0.91768 0.56837,-0.0883 -6.55469,2.85383 -6.76449,2.50437 -9.90362,2.85215 -8.052,1.92931 -5.2231,0.86058 -2.52329,0.43638 -2.10495,-4.71988 -0.80097,-1.65221 -0.16166,-0.0992 0.49515,6.86899 -2.10307,0.14966 -5.19091,0.4297 -4.53847,0.24676 -3.65759,0.0504 -2.74394,0.0309 -5.90606,-0.0643 -6.52986,-0.0847 -5.1576,-0.33437 -3.08517,-0.23847 -3.15996,-0.30673 -2.451227,-0.37944 -3.030326,-0.52063 -2.402334,-0.34409 -2.078104,-0.37474 -2.714649,-0.60389 -3.180225,-0.74821 -3.604176,-0.9822 -5.064966,-1.76331 -4.146121,-1.36267 -2.252927,-0.83336 -2.429108,-0.87537 -2.394886,-0.80775 -1.855456,-0.64821 -2.395032,-0.94578 -0.774606,-0.41775 0.946663,0.10857 1.795519,0.3838 1.602746,0.45442 2.301955,0.41701 1.94655,0.42688 1.758427,0.20237 3.43677,0.17956 4.158859,-0.023 3.319131,-0.37314 2.980122,-0.89709 2.386819,-1.32629 c 0,0 1.44563,-1.10673 1.567064,-1.23435 0.121435,-0.12762 0.886507,-0.86414 0.886507,-0.86414 l 0.552746,-0.65184 0.665626,-0.86828 0.09346,-0.2118 z"
       id="path851" />
    <path
       style="fill:#404042;fill-opacity:1;stroke:none;stroke-width:0.264583px;stroke-linecap:butt;stroke-linejoin:miter;stroke-opacity:1"
       d="m 119.09853,82.571071 -2.03005,1.083478 -2.92519,1.636581 -1.83106,0.945769 -3.01678,1.650206 3.09574,-1.01056 1.98938,-0.873575 3.207,-1.371603 2.49588,-1.008925 4.0632,-1.648522 1.91779,-0.806946 1.84974,-0.792374 0.46208,-0.202593 1.31313,1.294494 3.27781,3.63479 1.85623,1.918541 2.98531,3.123306 2.25065,2.482826 2.33905,2.399361 0.893,0.939014 4.40195,-2.802062 2.54924,-1.543195 3.50429,-2.064687 2.25569,-1.421185 0.98886,-0.614844 2.03055,5.744622 1.96753,5.240944 0.9131,2.531728 1.26936,3.1847 1.56015,4.13485 0.8849,2.51299 0.567,1.34072 -2.76316,-8.93035 -0.99692,-3.330897 -1.50907,-4.966401 -1.8242,-5.880928 -0.93626,-2.99303 -0.51659,-1.401644 -3.51286,2.18303 -2.73414,1.541875 -2.67984,1.617414 -2.55631,1.46241 -2.76412,1.679316 -0.17885,0.16516 -6.28434,-6.795015 -3.66635,-4.122754 -2.12663,-2.205929 -2.53396,-2.833718 -2.63137,1.384912 -3.72636,2.061119 z"
       id="path857" />
    <path
       style="fill:#ffffff;stroke:none;stroke-width:0.264583px;stroke-linecap:butt;stroke-linejoin:miter;stroke-opacity:1"
       d="m 88.613166,143.91559 -0.06507,1.7473 0.01003,9.43073 0.05837,1.77506 -0.03701,0.20667 -0.837592,-1.38551 -0.726556,-1.34278 -0.73619,-1.94206 -0.455557,-2.11874 -0.271915,-2.43302 0.08678,-3.4255 0.05905,-0.99237 z"
       id="path865" />
    <path
       style="fill:#000000;stroke:none;stroke-width:0.264583px;stroke-linecap:butt;stroke-linejoin:miter;stroke-opacity:1"
       d="m 133.32865,178.59106 c 0.18922,0.25176 0.37818,0.50326 0.56687,0.75449 0.44766,0.58322 0.89504,1.16616 1.34217,1.74884 0.40008,0.56295 0.79988,1.12561 1.19942,1.68803 0.32588,0.6455 0.65147,1.29071 0.97681,1.93566 0.35343,0.68443 0.70657,1.36856 1.05946,2.05244 0.0866,0.29248 0.17285,0.58468 0.25887,0.87662 0.0839,0.56407 0.16753,1.12785 0.25089,1.69137 -0.1298,0.4747 -0.25986,0.9491 -0.39019,1.42326 -0.34837,0.395 -0.697,0.78973 -1.04591,1.18419 -0.49883,0.1819 -0.99791,0.36353 -1.49727,0.5449 -0.69979,-0.12262 -1.39982,-0.2455 -2.10013,-0.36865 -0.4042,-0.28317 -0.80865,-0.56659 -1.21337,-0.85028 -0.37782,-0.50666 -0.75589,-1.01357 -1.13423,-1.52075 -0.52278,-0.81296 -1.04581,-1.62615 -1.56911,-2.43962 -0.33058,-0.75901 -0.66141,-1.51826 -0.99252,-2.27779 -0.25291,-0.75613 -0.50606,-1.51249 -0.75949,-2.26914 -0.15157,-0.65036 -0.30339,-1.30096 -0.45549,-1.95183 -0.01,-0.39826 -0.0192,-0.79676 -0.0293,-1.19554 0.0287,-0.13405 0.0572,-0.26836 0.0854,-0.40294 1.81599,-0.20749 3.63164,-0.41524 5.44706,-0.62326 z"
       id="path869" />
    <path
       style="fill:#000000;stroke:none;stroke-width:0.264583px;stroke-linecap:butt;stroke-linejoin:miter;stroke-opacity:1"
       d="m 105.53399,178.2627 c -0.49827,0.64655 -0.9968,1.29284 -1.49559,1.93886 -0.33264,0.50501 -0.66553,1.00972 -0.9987,1.51418 -0.30945,0.47716 -0.61917,0.95404 -0.92915,1.43066 -0.28372,0.48552 -0.5677,0.97077 -0.85194,1.45575 -0.28643,0.62465 -0.57311,1.24902 -0.86006,1.87313 -0.13375,0.53633 -0.26777,1.07238 -0.402046,1.60817 -0.05645,0.37876 -0.113172,0.75724 -0.170156,1.13547 0.03016,0.27677 0.06006,0.55327 0.0897,0.82951 0.162522,0.31158 0.324772,0.62289 0.486762,0.93393 0.24994,0.24929 0.49961,0.49831 0.74902,0.74707 0.31554,0.18599 0.63082,0.37171 0.94583,0.55717 0.49278,0.0514 0.98527,0.10247 1.47751,0.15331 0.51366,-0.17084 1.02702,-0.34194 1.54014,-0.51331 0.28046,-0.22483 0.56065,-0.44992 0.84058,-0.67527 0.64572,-0.76704 1.29115,-1.53432 1.93632,-2.30188 0.50438,-0.96397 1.00848,-1.92817 1.51231,-2.89265 0.47075,-0.88756 0.94122,-1.77535 1.41143,-2.66342 0.2997,-0.6923 0.59912,-1.38483 0.89828,-2.07764 0.19605,-0.47581 0.39182,-0.95187 0.58733,-1.4282 -0.23434,-0.23774 -0.46894,-0.47574 -0.7038,-0.71401 -2.02103,-0.30335 -4.04225,-0.60696 -6.06377,-0.91083 z"
       id="path873" />
    <path
       style="fill:#000000;stroke:none;stroke-width:0.264583px;stroke-linecap:butt;stroke-linejoin:miter;stroke-opacity:1"
       d="m 113.21972,200.33952 c -0.13847,0.14945 -0.2772,0.29864 -0.41619,0.44757 -0.20531,0.14869 -0.41087,0.2971 -0.6167,0.44526 -0.25633,0.11315 -0.51291,0.22603 -0.76976,0.33865 -0.24212,0.0587 -0.48449,0.11704 -0.72713,0.17517 -0.31823,-0.0245 -0.63672,-0.0492 -0.95548,-0.0743 -0.26153,-0.1174 -0.52331,-0.23505 -0.78536,-0.35297 -0.17084,-0.18092 -0.34193,-0.3621 -0.51329,-0.54354 -0.16964,-0.3344 -0.33953,-0.66904 -0.5097,-1.00396 -0.0896,-0.32157 -0.17955,-0.6434 -0.26973,-0.96549 -0.0246,-0.13597 -0.0495,-0.27219 -0.0747,-0.40868 0.0478,-0.21398 0.0954,-0.42821 0.14272,-0.64271 0.14832,-0.0554 0.29636,-0.11108 0.44415,-0.16701 2.19739,0.39422 4.39444,0.78816 6.59126,1.18185 -0.09,0.0404 -0.18024,0.0806 -0.27076,0.12044 -0.218,0.26942 -0.43625,0.53857 -0.65476,0.80746 -0.13055,0.13758 -0.26136,0.27489 -0.39243,0.41194 -0.0738,0.077 -0.14784,0.15378 -0.22216,0.23027 z"
       id="path881" />
    <path
       style="fill:#000000;stroke:none;stroke-width:0.264583px;stroke-linecap:butt;stroke-linejoin:miter;stroke-opacity:1"
       d="m 123.69751,199.29149 c 0.14143,0.19313 0.28259,0.38599 0.4235,0.57858 0.22381,0.195 0.44735,0.38973 0.67064,0.5842 0.13182,0.12299 0.26337,0.24572 0.39466,0.36819 0.30357,0.18475 0.60687,0.36923 0.9099,0.55345 0.22374,0.0839 0.44721,0.16764 0.67042,0.25106 0.34746,0.0862 0.69463,0.17213 1.04156,0.2578 0.36381,0.0107 0.72734,0.0212 1.09061,0.0314 0.26385,-0.10018 0.52741,-0.20063 0.79072,-0.30134 0.17454,-0.25492 0.34881,-0.51009 0.52282,-0.76553 0.0927,-0.29282 0.18523,-0.5859 0.27745,-0.87925 0.0163,-0.35583 0.0324,-0.7119 0.0482,-1.06825 -0.0135,-0.1339 -0.0272,-0.26806 -0.0413,-0.40249 -0.0399,-0.26503 -0.08,-0.53032 -0.12044,-0.79587 -0.10438,-0.0395 -0.20903,-0.0793 -0.31394,-0.11932 -2.29638,0.3395 -4.59292,0.67872 -6.88978,1.01769 0.0284,0.0685 0.0566,0.13679 0.0845,0.20478 0.14708,0.1619 0.29388,0.32353 0.44042,0.48489 z"
       id="path885" />
    <path
       style="fill:#ffffff;stroke:none;stroke-width:0.264583px;stroke-linecap:butt;stroke-linejoin:miter;stroke-opacity:1"
       d="m 136.19663,189.12712 c -0.30212,0.20873 -0.6045,0.41719 -0.90715,0.62539 -0.17947,0.11837 -0.3592,0.23647 -0.5392,0.35431 -0.0955,0.0605 -0.19123,0.12076 -0.28724,0.18075 0.1737,0.0573 0.34713,0.11439 0.5203,0.17119 0.33325,0.006 0.66622,0.0108 0.99893,0.0159 0.22795,-0.10469 0.45563,-0.20963 0.68304,-0.31484 0.1198,-0.11908 0.23932,-0.23842 0.35859,-0.35802 -0.003,-0.39281 -0.006,-0.78588 -0.009,-1.17921 -0.0448,0.0104 -0.0898,0.0205 -0.13508,0.0303 -0.22749,0.15836 -0.45525,0.31645 -0.68327,0.47428 z"
       id="path889" />
    <path
       style="fill:#ffffff;stroke:none;stroke-width:0.264583px;stroke-linecap:butt;stroke-linejoin:miter;stroke-opacity:1"
       d="m 101.71134,188.75484 c -0.0182,0.1893 -0.0366,0.37833 -0.0553,0.56711 0.0543,0.19184 0.10835,0.38341 0.16212,0.57472 0.12565,0.14251 0.25104,0.28476 0.37616,0.42674 0.20405,0.0649 0.40783,0.12961 0.61135,0.19401 0.34324,-0.037 0.68621,-0.0743 1.02892,-0.11191 0.15322,-0.0569 0.30616,-0.11405 0.45885,-0.17147 -0.34207,-0.23181 -0.68438,-0.46388 -1.02697,-0.69622 -0.26892,-0.17925 -0.53809,-0.35876 -0.80754,-0.53854 -0.14364,-0.093 -0.28754,-0.18633 -0.43171,-0.2799 -0.0811,-0.0293 -0.16248,-0.0588 -0.24411,-0.0886 -0.0327,0.0779 -0.0656,0.1556 -0.0988,0.23301 0.009,-0.0361 0.0183,-0.0724 0.0271,-0.10897 z"
       id="path893" />
    <path
       style="fill:#404042;fill-opacity:1;stroke:none;stroke-width:0.264583px;stroke-linecap:butt;stroke-linejoin:miter;stroke-opacity:1"
       d="m 135.15345,187.9302 c -0.24351,0.17699 -0.48728,0.35371 -0.73132,0.53017 -0.21536,0.20732 -0.73534,0.60426 -0.73534,0.60426 l -0.20855,0.11776 0.6306,-0.93849 1.6165,-1.4461 0.10192,-0.27484 -0.50318,-0.66376 -0.93336,-1.66134 -0.60949,-1.10416 -0.67973,-1.15436 -0.80276,-1.1007 -0.28532,-0.47523 -0.0156,-0.73027 1.0043,1.23259 0.83103,1.13041 0.70615,1.00126 0.66806,1.08359 0.7647,1.47005 0.48938,0.959 0.13019,0.46218 -0.54,0.35967 z"
       id="path901" />
    <path
       style="fill:#404042;fill-opacity:1;stroke:none;stroke-width:0.264583px;stroke-linecap:butt;stroke-linejoin:miter;stroke-opacity:1"
       d="m 103.14626,186.57873 0.50116,-0.94257 0.62891,-1.16731 0.5008,-0.97835 0.6119,-0.86814 0.46424,-0.81514 0.68717,-0.91096 0.2715,-0.3369 -0.0681,-0.84982 -0.24102,0.31031 -0.69576,0.79727 -0.80841,1.07455 -0.82019,1.25995 -0.81738,1.42049 -0.65621,1.279 -0.54904,1.00155 0.60019,0.52379 1.42607,0.96288 0.92218,0.44758 -0.61165,-0.78659 -1.00281,-0.91434 -0.42726,-0.3864 z"
       id="path903" />
    <path
       style="fill:#ffdd55;fill-opacity:1;stroke:none;stroke-width:0.264583px;stroke-linecap:butt;stroke-linejoin:miter;stroke-opacity:1"
       d="m 133.04721,128.39237 -0.0382,0.95745 -0.11777,1.1699 -0.0582,0.29456 1.47993,-0.14003 1.90332,-0.0948 2.74755,-0.15454 3.68447,-0.26948 2.49228,-0.23937 2.10191,-0.23191 0.50651,-0.13743 -0.42846,-1.02506 -0.21817,-0.76226 -0.042,-0.50688 -0.90856,0.10409 -2.47351,0.21851 -2.62434,0.22581 -2.0283,0.14761 -2.47035,0.17042 -2.28922,0.10428 -1.22879,0.0544 z"
       id="path905" />
    <path
       style="fill:#ffdd55;stroke:none;stroke-width:0.264583px;stroke-linecap:butt;stroke-linejoin:miter;stroke-opacity:1"
       d="m 106.14564,128.4728 -0.0802,0.69079 0.16324,0.84127 0.12761,0.74984 -1.86231,-0.0187 -1.75038,-0.10938 -3.478698,-0.26968 -3.493286,-0.20757 -1.839259,-0.25082 -2.077897,-0.21296 0.517935,-1.09751 0.375373,-0.82389 0.052,-0.30807 2.090772,0.28301 1.769771,0.11302 2.563151,0.22968 2.356938,0.15846 1.85607,0.11662 1.67559,0.0523 z"
       id="path907" />
    <path
       style="fill:#2b1100;stroke:none;stroke-width:0.264583px;stroke-linecap:butt;stroke-linejoin:miter;stroke-opacity:1"
       d="m 94.098286,184.53759 1.178438,1.27246 1.512086,1.93564 0.932976,1.56482 1.707711,2.46404 1.172563,1.8717 0.58618,0.83043 0.77339,1.19464 0.36853,1.42432 0.55668,1.6439 0.10727,0.2783 1.51429,0.74145 1.10466,0.57183 0.54799,0.92879 0.44701,0.41221 0.52629,-0.0396 0.29694,-0.3948 -0.34711,-0.37668 -0.0775,-0.33592 -0.43813,-0.85822 -0.50686,-0.97237 -0.22689,-0.46015 -0.76917,-0.65159 -0.51081,-0.29841 -0.44483,-1.39717 -0.0256,-0.74105 -1.02623,-1.4192 -0.90015,-1.27842 -0.96878,-1.16419 -0.81094,-1.12347 -0.870876,-1.18264 -0.978805,-1.41876 -0.913559,-1.23569 -1.043371,-1.34481 -0.723389,-0.91566 -0.259356,-0.27287 0.109869,-0.8655 -0.434695,-0.10787 0.0075,-0.20843 -0.39016,0.0507 0.195967,-1.61357 0.07509,-1.00603 -0.01789,-0.65076 -0.366797,-0.28565 0.139396,-0.52763 -2.101802,0.39513 -1.904805,0.44896 -1.162169,0.0652 -0.329898,-0.26245 -0.823098,-0.84881 -0.204091,-0.65311 0.147894,-1.63083 0.589846,-0.55414 1.82748,-0.12867 0.297436,0.45769 -0.07997,1.4147 0.464177,0.65433 1.427917,-0.81566 -0.10454,-2.85795 -2.939878,-1.37959 -3.625053,2.75647 -0.03261,3.63153 2.614448,2.12031 4.166378,-0.5005 -0.34081,2.32798 -0.06938,0.80698 0.207653,0.20851 -0.04568,0.0585 0.319193,0.0891 -0.125793,0.44082 -0.228285,0.5617 -0.577025,0.43496 -0.863171,0.47623 -1.53797,0.87073 -1.189807,0.71895 -0.73024,0.51437 -0.485643,0.39783 -0.398655,0.42048 -0.333719,0.3915 -0.386392,0.62807 -0.26016,0.52357 -0.280403,0.76513 -0.01394,0.7559 0.0044,0.70947 0.177144,0.73331 0.309538,0.63386 0.490091,0.73932 0.735414,0.78083 0.75056,0.63254 0.404233,0.22168 -0.382249,-0.75221 -0.31574,-0.66201 -0.357556,-0.92826 -0.130619,-0.67132 0.0086,-0.77667 0.221858,-0.74798 0.267761,-0.53031 0.370864,-0.34897 0.175771,-0.10616 -0.276358,0.72967 0.08887,0.39848 0.215027,0.73644 0.343871,0.44516 0.344056,0.37156 0.08022,-0.043 -0.365173,-0.73028 -0.124743,-0.37479 7.94e-4,-0.51989 -0.0056,-0.68243 0.173226,-0.32006 0.163142,-0.5206 0.45711,-0.58502 0.479025,-0.58702 0.486217,-0.54118 0.487516,-0.5141 0.45893,-0.40154 0.651285,-0.50056 0.649571,-0.54039 0.78686,-0.77481 0.104754,-0.40691 0.09839,-0.44413 -0.02849,-0.68987 0.0177,-0.21879 0.220345,-0.002 z"
       id="path909" />
    <path
       style="fill:#000000;stroke:none;stroke-width:0.264583px;stroke-linecap:butt;stroke-linejoin:miter;stroke-opacity:1"
       d="m 116.26941,170.30494 c 0.10079,0.24431 0.20133,0.48835 0.30159,0.73212 0.22876,0.18496 0.45724,0.36965 0.68545,0.55407 0.25221,0.12649 0.50413,0.25271 0.7558,0.37867 0.2439,0.0518 0.48753,0.10329 0.7309,0.15454 0.31258,0.005 0.62488,0.009 0.93692,0.0138 0.32705,-0.072 0.65381,-0.14435 0.98032,-0.21693 0.28186,-0.12427 0.56344,-0.2488 0.84476,-0.37361 0.17592,-0.16334 0.35156,-0.32695 0.52695,-0.49083 0.10732,-0.21828 0.21438,-0.43683 0.32117,-0.65564 0.0982,-0.19958 0.19622,-0.39942 0.29393,-0.59953 0.1124,-0.14796 0.22453,-0.29619 0.3364,-0.44469 0.0712,-0.0442 0.14205,-0.0886 0.21268,-0.13327 0.1797,0.0134 0.35914,0.0266 0.53831,0.0395 0.16631,0.12493 0.33235,0.24959 0.49813,0.37399 0.0262,0.18276 0.0521,0.36524 0.0778,0.54747 -0.0475,0.27673 -0.0953,0.55318 -0.14342,0.82937 -0.13371,0.24021 -0.26767,0.48013 -0.4019,0.7198 -0.1365,0.21957 -0.27326,0.43887 -0.41029,0.6579 -0.29733,0.22575 -0.59491,0.45123 -0.89277,0.67644 -0.30837,0.1504 -0.617,0.30053 -0.92589,0.45039 -0.45088,0.10058 -0.902,0.20088 -1.35339,0.30092 -0.549,-0.012 -1.09824,-0.0243 -1.64775,-0.0369 -0.49936,-0.10728 -0.99896,-0.21482 -1.49884,-0.32263 -0.34304,-0.1646 -0.68634,-0.32947 -1.0299,-0.4946 -0.28349,-0.25365 -0.56724,-0.50754 -0.85125,-0.76171 -0.13658,-0.2208 -0.27343,-0.44187 -0.41054,-0.66321 -0.0832,-0.24135 -0.16675,-0.48296 -0.25053,-0.72484 -0.0208,-0.22588 -0.042,-0.45202 -0.0633,-0.67843 0.0651,-0.16135 0.13,-0.32296 0.19461,-0.48483 0.0857,-0.0997 0.17104,-0.19962 0.25616,-0.29982 0.15029,-0.0276 0.30032,-0.0555 0.45009,-0.0836 0.2354,0.0335 0.47053,0.0668 0.7054,0.0997 0.0755,0.1107 0.1508,0.22113 0.2258,0.33129 0.002,0.20196 0.005,0.40364 0.007,0.60506 z"
       id="path911" />
    <path
       id="path39"
       style="fill:#000000;stroke:none;stroke-width:0.252297"
       d="m 109.34113,158.5858 a 5.4730835,5.4564824 0 0 1 -5.47309,5.45648 5.4730835,5.4564824 0 0 1 -5.473082,-5.45648 5.4730835,5.4564824 0 0 1 5.473082,-5.45648 5.4730835,5.4564824 0 0 1 5.47309,5.45648 z" />
    <path
       id="path39-3"
       style="fill:#000000;stroke:none;stroke-width:0.252297"
       d="m 140.29195,158.60767 a 5.473084,5.4564829 0 0 1 -5.47309,5.45648 5.473084,5.4564829 0 0 1 -5.47308,-5.45648 5.473084,5.4564829 0 0 1 5.47308,-5.45649 5.473084,5.4564829 0 0 1 5.47309,5.45649 z" />
    <path
       id="path49"
       style="fill:#ffffff;stroke:none;stroke-width:0.264583"
       d="m 138.69597,157.91891 a 2.2327013,2.2466249 0 0 1 -2.2327,2.24663 2.2327013,2.2466249 0 0 1 -2.2327,-2.24663 2.2327013,2.2466249 0 0 1 2.2327,-2.24662 2.2327013,2.2466249 0 0 1 2.2327,2.24662 z" />
    <path
       id="path49-6"
       style="fill:#ffffff;stroke:none;stroke-width:0.264583"
       d="m 107.78846,157.8763 a 2.2327013,2.2466252 0 0 1 -2.2327,2.24662 2.2327013,2.2466252 0 0 1 -2.2327,-2.24662 2.2327013,2.2466252 0 0 1 2.2327,-2.24663 2.2327013,2.2466252 0 0 1 2.2327,2.24663 z" />
    <path
       id="path83"
       style="fill:#ffffff;stroke:none;stroke-width:0.264583"
       d="m 133.27267,160.45265 a 0.92835182,0.92223001 0 0 1 -0.92836,0.92223 0.92835182,0.92223001 0 0 1 -0.92835,-0.92223 0.92835182,0.92223001 0 0 1 0.92835,-0.92223 0.92835182,0.92223001 0 0 1 0.92836,0.92223 z" />
    <path
       id="path83-7"
       style="fill:#ffffff;stroke:none;stroke-width:0.264583"
       d="m 102.36201,160.49751 a 0.92835182,0.92223001 0 0 1 -0.92835,0.92223 0.92835182,0.92223001 0 0 1 -0.92835,-0.92223 0.92835182,0.92223001 0 0 1 0.92835,-0.92223 0.92835182,0.92223001 0 0 1 0.92835,0.92223 z" />
    <path
       id="path104"
       style="fill:#db879b;fill-opacity:1;stroke:none;stroke-width:0.253961"
       transform="matrix(0.94479073,0.32767435,-0.31142632,0.9502703,0,0)"
       d="m 185.33794,112.87505 a 3.0485229,1.2751861 0 0 1 -3.04853,1.27519 3.0485229,1.2751861 0 0 1 -3.04852,-1.27519 3.0485229,1.2751861 0 0 1 3.04852,-1.27518 3.0485229,1.2751861 0 0 1 3.04853,1.27518 z" />
    <path
       id="path104-5"
       style="fill:#da8799;fill-opacity:1;stroke:none;stroke-width:0.253961"
       transform="matrix(0.92700878,-0.37503962,0.39087943,0.92044189,0,0)"
       d="m 31.416792,192.95819 a 3.0485229,1.2751861 0 0 1 -3.048523,1.27519 3.0485229,1.2751861 0 0 1 -3.048523,-1.27519 3.0485229,1.2751861 0 0 1 3.048523,-1.27519 3.0485229,1.2751861 0 0 1 3.048523,1.27519 z" />
    <path
       style="fill:#550000;stroke:none;stroke-width:0.264583px;stroke-linecap:butt;stroke-linejoin:miter;stroke-opacity:1"
       d="m 93.205852,184.37939 -0.125794,0.44082 -0.228285,0.5617 -0.577025,0.43496 -0.898048,0.4988 -0.735738,0.40669 -0.66177,0.38615 -1.295392,0.77427 -0.73024,0.51437 -0.485642,0.39783 -0.410806,0.4289 -0.321569,0.38308 -0.343588,0.55206 -0.0428,0.076 -0.26016,0.52357 -0.280403,0.76513 -0.01595,0.76775 0.0064,0.69762 0.177144,0.73331 0.309539,0.63386 0.49009,0.73932 0.735415,0.78083 0.750559,0.63254 0.404233,0.22168 -0.376774,-0.74497 -0.321215,-0.66925 -0.357555,-0.92826 -0.13062,-0.67132 0.0086,-0.77667 0.221859,-0.74798 0.267761,-0.53031 0.370863,-0.34897 0.175771,-0.10616 -0.07191,0.18054 -0.204449,0.54913 0.08887,0.39848 0.215027,0.73644 0.343871,0.44516 0.344056,0.37156 0.08022,-0.043 -0.365175,-0.73028 -0.124744,-0.37479 -0.0024,-0.72041 -0.0024,-0.48191 0.173225,-0.32006 0.163142,-0.5206 0.258411,-0.33133 0.535464,-0.66737 0.612817,-0.69602 0.503177,-0.5326 0.45893,-0.40154 0.622541,-0.47624 0.589029,-0.48666 0.08929,-0.0781 0.78686,-0.77481 0.203144,-0.85104 -0.02849,-0.68987 0.0177,-0.21879 z"
       id="path956" />
    <g
       aria-label="S"
       id="text972"
       style="font-style:normal;font-weight:normal;font-size:10.5833px;line-height:1.25;font-family:sans-serif;fill:#ffffff;fill-opacity:1;stroke:none;stroke-width:0.264583">
      <path
         d="m 121.76132,186.44588 v 1.01802 q -0.59428,-0.28422 -1.12137,-0.42375 -0.5271,-0.13952 -1.01803,-0.13952 -0.85265,0 -1.31774,0.33072 -0.45992,0.33073 -0.45992,0.94051 0,0.5116 0.30489,0.77515 0.31006,0.25838 1.16788,0.41857 l 0.63045,0.1292 q 1.16789,0.2222 1.72082,0.78547 0.55811,0.55811 0.55811,1.49862 0,1.12137 -0.75448,1.70015 -0.7493,0.57877 -2.2014,0.57877 -0.54777,0 -1.16789,-0.12402 -0.61495,-0.12403 -1.2764,-0.3669 V 192.492 q 0.63562,0.35656 1.2454,0.53743 0.60978,0.18087 1.19889,0.18087 0.894,0 1.37975,-0.3514 0.48576,-0.3514 0.48576,-1.00252 0,-0.56844 -0.3514,-0.88883 -0.34623,-0.32039 -1.14205,-0.48059 l -0.63561,-0.12402 q -1.16789,-0.23255 -1.68982,-0.72864 -0.52193,-0.49609 -0.52193,-1.37976 0,-1.02319 0.7183,-1.61229 0.72347,-0.58911 1.98954,-0.58911 0.5426,0 1.10587,0.0982 0.56327,0.0982 1.15238,0.29456 z"
         style="fill:#ffffff;stroke-width:0.264583"
         id="path1106" />
    </g>
    <path
       id="rect980"
       style="opacity:1;fill:#ffdd55;fill-opacity:1;stroke:none;stroke-width:0.284256"
       d="m 112.75512,120.96615 h 13.7829 c 1.19498,0 2.15701,0.96202 2.15701,2.15701 v 10.75948 c 0,1.19498 -0.96203,2.15701 -2.15701,2.15701 h -13.7829 c -1.19499,0 -2.15701,-0.96203 -2.15701,-2.15701 v -10.75948 c 0,-1.19499 0.96202,-2.15701 2.15701,-2.15701 z" />
    <path
       id="rect980-3"
       style="opacity:1;fill:#000000;fill-opacity:1;stroke:none;stroke-width:0.183196"
       d="m 115.47188,123.73273 h 8.66986 c 0.85755,0 1.54793,0.69037 1.54793,1.54793 v 6.53393 c 0,0.85755 -0.69038,1.54793 -1.54793,1.54793 h -8.66986 c -0.85755,0 -1.54793,-0.69038 -1.54793,-1.54793 v -6.53393 c 0,-0.85756 0.69038,-1.54793 1.54793,-1.54793 z" />
    <path
       id="path1012"
       style="opacity:1;fill:#ffffff;fill-opacity:1;stroke:none;stroke-width:0.233885"
       inkscape:transform-center-x="197.44254"
       inkscape:transform-center-y="9.9115069"
       transform="matrix(0.6027754,0.79791091,-0.53530194,0.84466078,0,0)"
       d="m 173.2088,-16.678141 a 0.86442387,1.4682533 0 0 1 -0.86442,1.468254 0.86442387,1.4682533 0 0 1 -0.86443,-1.468254 0.86442387,1.4682533 0 0 1 0.86443,-1.468253 0.86442387,1.4682533 0 0 1 0.86442,1.468253 z" />
    <path
       id="path1016"
       style="opacity:1;fill:#ffffff;fill-opacity:1;stroke:none;stroke-width:0.264583"
       d="m 112.4506,125.35287 a 0.34892589,0.33602613 0 0 1 -0.34893,0.33602 0.34892589,0.33602613 0 0 1 -0.34893,-0.33602 0.34892589,0.33602613 0 0 1 0.34893,-0.33603 0.34892589,0.33602613 0 0 1 0.34893,0.33603 z" />
    <path
       id="path1033"
       style="opacity:1;fill:#ffdd55;fill-opacity:1;stroke:none;stroke-width:0.264583"
       inkscape:transform-center-x="0.17273658"
       inkscape:transform-center-y="0.26010645"
       transform="matrix(0.73075078,0,0,0.7717761,45.644734,27.520999)"
       d="m 177.72468,128.34294 -3.93954,0.0591 -2.18466,3.27883 -1.27364,-3.72845 -3.79344,-1.06453 3.15239,-2.36345 -0.15982,-3.93673 3.22192,2.26775 3.69467,-1.36851 -1.16113,3.765 z" />
    <path
       id="path1035"
       style="opacity:1;fill:#ffdd55;fill-opacity:1;stroke:none;stroke-width:0.264583"
       inkscape:transform-center-x="0.10276741"
       inkscape:transform-center-y="0.3304576"
       transform="rotate(48.963268,133.50948,111.28824)"
       d="m 136.67349,114.48314 -2.8231,-0.97266 -2.40171,1.77419 0.0527,-2.98549 -2.42952,-1.73591 2.85565,-0.87248 0.90018,-2.84704 1.71222,2.44627 2.98587,-0.0237 -1.79744,2.38436 z" />
    <path
       id="path1037"
       style="opacity:1;fill:#ffdd55;fill-opacity:1;stroke:none;stroke-width:0.264583"
       inkscape:transform-center-x="0.29443473"
       inkscape:transform-center-y="-0.17560178"
       transform="matrix(0.89471106,-0.21675587,0.2105499,0.92108274,-4.3911436,29.569646)"
       d="m 101.4862,115.0494 0.69689,-3.40742 -2.411872,-2.50581 3.456012,-0.39017 1.63785,-3.06817 1.43904,3.1663 3.42412,0.60958 -2.56663,2.34704 0.47837,3.4449 -3.02531,-1.71574 z" />
    <path
       id="path1039"
       style="opacity:1;fill:#ffdd55;fill-opacity:1;stroke:none;stroke-width:0.264583"
       inkscape:transform-center-x="0.20885323"
       inkscape:transform-center-y="-0.051690048"
       transform="matrix(0.75824538,0,0,0.72479554,26.618002,25.3013)"
       d="m 112.92836,97.722644 -2.32689,-0.554586 -1.776,1.602428 -0.1916,-2.384375 -2.07282,-1.1939 2.20847,-0.919038 0.49493,-2.340299 1.55651,1.816378 2.3787,-0.252485 -1.24649,2.041622 z" />
    <path
       id="path1041"
       style="opacity:1;fill:#ff00ff;fill-opacity:1;stroke:none;stroke-width:0.264583"
       inkscape:transform-center-x="-2.3160621"
       inkscape:transform-center-y="-1.2696376"
       transform="matrix(1.1157708,0.19527758,-0.19722398,1.126892,4.9457752,-38.4802)"
       d="m 121.20981,101.43791 1.09449,-2.29541 -1.27042,-2.20292 2.52128,0.331603 1.70252,-1.888982 0.46375,2.500353 2.32263,1.035465 -2.23467,1.213701 -0.26705,2.52893 -1.84485,-1.75024 z" />
    <path
       id="path1043"
       style="opacity:1;fill:#ff00ff;fill-opacity:1;stroke:none;stroke-width:0.264583"
       inkscape:transform-center-x="-0.24950366"
       inkscape:transform-center-y="0.011978101"
       d="m 99.642698,119.73978 0.867062,-1.59394 -0.821492,-1.6179 1.783862,0.33208 1.28486,-1.28125 0.23542,1.79917 1.61558,0.82605 -1.63837,0.77987 -0.28637,1.79177 -1.24798,-1.31718 z" />
    <path
       id="path1045"
       style="opacity:1;fill:#ff00ff;fill-opacity:1;stroke:none;stroke-width:0.264583"
       inkscape:transform-center-x="-0.16280329"
       inkscape:transform-center-y="0.04924102"
       d="m 134.06817,96.478144 0.77206,-1.241145 -0.58474,-1.339628 1.41898,0.350737 1.09337,-0.970083 0.10492,1.457913 1.26047,0.740084 -1.35413,0.550303 -0.31436,1.427479 -0.94182,-1.117807 z" />
    <path
       id="path1043-6"
       style="opacity:1;fill:#ff00ff;fill-opacity:1;stroke:none;stroke-width:0.264583"
       inkscape:transform-center-x="0.18125903"
       inkscape:transform-center-y="0.0079863791"
       transform="matrix(0.57517604,-0.41109927,0.4432304,0.53347976,3.2664175,112.43288)"
       d="m 135.88351,124.50022 0.86707,-1.59394 -0.8215,-1.61789 1.78387,0.33207 1.28485,-1.28124 0.23542,1.79917 1.61558,0.82604 -1.63836,0.77988 -0.28637,1.79177 -1.24799,-1.31719 z" />
  </g>
</svg>
